<?xml version="1.0" encoding="UTF-8"?>
<svg width="59px" height="60px" viewBox="0 0 59 60" version="1.1" xmlns="http://www.w3.org/2000/svg" xmlns:xlink="http://www.w3.org/1999/xlink">
    <!-- Generator: Sketch 46.2 (44496) - http://www.bohemiancoding.com/sketch -->
    <title>Clip 5 Copy</title>
    <desc>Created with Sketch.</desc>
    <defs></defs>
    <g id="Page-1" stroke="none" stroke-width="1" fill="none" fill-rule="evenodd">
        <g id="Home-Alt-Copy" transform="translate(-40.000000, -40.000000)" fill="#F1F5F7">
            <path d="M84.8205683,80.9406039 L84.8205683,55.1792569 L96.9831902,80.9406039 L84.8205683,80.9406039 L84.8205683,80.9406039 Z M79.0854882,96.8790313 L84.5943008,82.3989949 L96.1476039,82.3989949 L79.0854882,96.8790313 L79.0854882,96.8790313 Z M76.8922967,98.5404218 L54.9479099,98.5404218 L82.7033932,83.2661945 L76.8922967,98.5404218 L76.8922967,98.5404218 Z M64.8241014,72.8698904 L82.5210726,81.7009616 L53.676417,97.5764711 L64.8241014,72.8698904 L64.8241014,72.8698904 Z M53.1134206,82.0220806 L62.5400465,74.3822959 L52.8954674,95.7554113 L53.1134206,82.0220806 L53.1134206,82.0220806 Z M42.8684309,72.627122 L62.4082056,72.6099086 L52.3989854,80.7215781 L42.8684309,72.627122 L42.8684309,72.627122 Z M51.4285887,44.9717067 L51.6542623,64.1783072 L42.3024651,70.1329587 L51.4285887,44.9717067 L51.4285887,44.9717067 Z M52.3989854,65.4342923 L61.8576807,71.150924 L43.3928251,71.1681374 L52.3989854,65.4342923 L52.3989854,65.4342923 Z M62.985455,70.1293973 L53.1140145,64.1616873 L52.8865592,44.8553678 L62.985455,70.1293973 L62.985455,70.1293973 Z M83.3620039,53.7066202 L83.3620039,80.4918681 L65.6935388,71.6750425 L83.3620039,53.7066202 L83.3620039,53.7066202 Z M82.7598116,52.2399193 L64.7326442,70.5704167 L53.3788841,42.1552372 L82.7598116,52.2399193 L82.7598116,52.2399193 Z M84.5770783,51.3133631 L51.6720787,40 L40,72.0881643 L51.6536685,82.0036801 L51.3596988,100 L77.708879,100 L99,81.8748763 L84.5770783,51.3133631 L84.5770783,51.3133631 Z" id="Clip-5-Copy"></path>
        </g>
    </g>
</svg>