<?xml version="1.0" encoding="UTF-8"?>
<svg width="59px" height="60px" viewBox="0 0 59 60" version="1.1" xmlns="http://www.w3.org/2000/svg" xmlns:xlink="http://www.w3.org/1999/xlink">
    <!-- Generator: Sketch 43.2 (39069) - http://www.bohemiancoding.com/sketch -->
    <title>rocka_iso_black</title>
    <desc>Created with Sketch.</desc>
    <defs></defs>
    <g id="Page-1" stroke="none" stroke-width="1" fill="none" fill-rule="evenodd">
        <g id="rocka_iso_black" fill-rule="nonzero" fill="#082C4C">
            <path d="M44.8205683,40.9406039 L44.8205683,15.1792569 L56.9831902,40.9406039 L44.8205683,40.9406039 L44.8205683,40.9406039 Z M39.0854882,56.8790313 L44.5943008,42.3989949 L56.1476039,42.3989949 L39.0854882,56.8790313 L39.0854882,56.8790313 Z M36.8922967,58.5404218 L14.9479099,58.5404218 L42.7033932,43.2661945 L36.8922967,58.5404218 L36.8922967,58.5404218 Z M24.8241014,32.8698904 L42.5210726,41.7009616 L13.676417,57.5764711 L24.8241014,32.8698904 L24.8241014,32.8698904 Z M13.1134206,42.0220806 L22.5400465,34.3822959 L12.8954674,55.7554113 L13.1134206,42.0220806 L13.1134206,42.0220806 Z M2.8684309,32.627122 L22.4082056,32.6099086 L12.3989854,40.7215781 L2.8684309,32.627122 L2.8684309,32.627122 Z M11.4285887,4.9717067 L11.6542623,24.1783072 L2.3024651,30.1329587 L11.4285887,4.9717067 L11.4285887,4.9717067 Z M12.3989854,25.4342923 L21.8576807,31.150924 L3.3928251,31.1681374 L12.3989854,25.4342923 L12.3989854,25.4342923 Z M22.985455,30.1293973 L13.1140145,24.1616873 L12.8865592,4.8553678 L22.985455,30.1293973 L22.985455,30.1293973 Z M43.3620039,13.7066202 L43.3620039,40.4918681 L25.6935388,31.6750425 L43.3620039,13.7066202 L43.3620039,13.7066202 Z M42.7598116,12.2399193 L24.7326442,30.5704167 L13.3788841,2.1552372 L42.7598116,12.2399193 L42.7598116,12.2399193 Z M44.5770783,11.3133631 L11.6720787,0 L0,32.0881643 L11.6536685,42.0036801 L11.3596988,60 L37.708879,60 L59,41.8748763 L44.5770783,11.3133631 L44.5770783,11.3133631 Z" id="Clip-5-Copy"></path>
        </g>
    </g>
</svg>